:SAMPLES-PER-SECOND 30
:FULLY-SPECIFIED
:DEGREES
347
root  -16.9114 32.0894 0.320015 0.519302 20.9188 -8.11316
RightUpLeg  -15.3628 -15.7614 9.96347
RightLeg  34.3428 -2.60623 -1.55756
RightFoot  -10.3479 0.0163923 0.558619
RightToes  -29.4313 -0.140025 -0.247994
Spine  6.41451 -3.04115 -3.85727
Spine1  12.7709 -5.51894 -8.26263
HEad  -42.7041 -45.9957 54.1336
LeftShoulder1  0 -2.42657e-020 -4.95415e-022
LeftArm  -44.6426 12.3162 -77.0724
LeftForeArm  58.7116 -19.3943 -3.51031
LeftHand  0.832849 -13.1366 -7.5976
RightShoulder  0 2.42657e-020 1.07489e-018
RightArm  -21.0328 0.0987958 75.4136
RightForeArm  47.8815 24.9777 4.6845
RightHand  3.74156 21.8537 19.5812
LeftUpLeg  -19.4473 -11.4452 11.5365
LeftLeg  42.8523 4.15994 3.37645
LeftFoot  -16.0231 -0.213819 -1.5191
LeftToes  -15.364 1.33192e-006 1.13262e-007
348
root  -16.8686 32.3494 0.334729 1.27629 20.9079 -7.0491
RightUpLeg  -14.46 -14.7873 9.06859
RightLeg  31.9488 -3.33456 -1.80168
RightFoot  -9.28448 0.0196258 0.619291
RightToes  -29.2686 -0.139557 -0.247532
Spine  6.27164 -3.09295 -3.41532
Spine1  12.4451 -5.67611 -7.40123
HEad  -43.0104 -45.9324 54.4643
LeftShoulder1  0 -2.42657e-020 -4.95415e-022
LeftArm  -43.3025 11.1604 -78.6384
LeftForeArm  57.3781 -19.6538 -3.56466
LeftHand  0.751801 -12.5718 -7.19106
RightShoulder  0 2.42657e-020 1.07489e-018
RightArm  -17.3091 0.373677 74.8057
RightForeArm  47.4459 26.8259 5.08979
RightHand  3.5254 21.715 18.6063
LeftUpLeg  -18.1745 -12.5711 10.3699
LeftLeg  39.8498 5.27842 3.84217
LeftFoot  -14.5979 -0.216122 -1.68723
LeftToes  -14.89 1.33192e-006 1.13262e-007
349
root  -16.7771 32.5141 0.332616 1.83536 19.9131 -6.26019
RightUpLeg  -13.8203 -13.2417 8.27157
RightLeg  30.3015 -3.65223 -1.83702
RightFoot  -8.44238 0.016781 0.604961
RightToes  -29.6825 -0.141741 -0.249753
Spine  6.12229 -2.99362 -2.86127
Spine1  12.0982 -5.53322 -6.32546
HEad  -43.6779 -46.1353 56.0904
LeftShoulder1  0 -2.42657e-020 -4.95415e-022
LeftArm  -40.546 9.9331 -79.599
LeftForeArm  57.3722 -19.9021 -3.61412
LeftHand  0.663142 -12.2975 -6.52335
RightShoulder  0 2.42657e-020 1.07489e-018
RightArm  -14.7483 1.63961 72.7736
RightForeArm  47.9835 28.7534 5.52568
RightHand  3.01913 21.7498 15.9959
LeftUpLeg  -16.9704 -12.331 9.39969
LeftLeg  37.6832 6.02155 4.0427
LeftFoot  -13.7508 -0.212932 -1.7658
LeftToes  -14.5816 1.33192e-006 1.13262e-007
350
root  -16.6439 32.6375 0.314633 2.38116 18.3429 -5.64977
RightUpLeg  -13.5077 -11.5912 7.53763
RightLeg  29.1095 -3.57195 -1.70386
RightFoot  -7.66633 0.010266 0.530818
RightToes  -30.4175 -0.146807 -0.254857
Spine  5.94864 -2.97737 -2.26759
Spine1  11.712 -5.52821 -5.24277
HEad  -43.919 -46.2587 58.0822
LeftShoulder1  0 -2.42657e-020 -4.95415e-022
LeftArm  -36.6586 9.1608 -79.7619
LeftForeArm  57.1018 -20.6116 -3.75684
LeftHand  0.587736 -12.084 -5.92181
RightShoulder  0 2.42657e-020 1.07489e-018
RightArm  -13.9388 4.06142 70.6151
RightForeArm  49.1351 29.5471 5.70833
RightHand  2.38434 21.9047 12.6493
LeftUpLeg  -15.9244 -10.6771 8.59239
LeftLeg  35.9459 6.08393 3.82325
LeftFoot  -13.2446 -0.195846 -1.68679
LeftToes  -14.3028 1.33192e-006 1.13262e-007
351
root  -16.4623 32.761 0.33032 2.68068 16.1556 -5.09578
RightUpLeg  -12.9578 -9.8209 6.71296
RightLeg  27.9201 -3.14397 -1.42077
RightFoot  -6.81422 0.00199763 0.411145
RightToes  -31.2301 -0.152483 -0.260424
Spine  5.80813 -2.92183 -1.7271
Spine1  11.3984 -5.38515 -4.34935
HEad  -43.9109 -46.7496 60.6064
LeftShoulder1  0 -2.42657e-020 -4.95415e-022
LeftArm  -33.5074 8.94676 -79.363
LeftForeArm  56.813 -22.3488 -4.1115
LeftHand  0.586222 -12.2736 -5.8214
RightShoulder  0 2.42657e-020 1.07489e-018
RightArm  -14.9037 7.10157 69.0481
RightForeArm  50.402 29.2356 5.63317
RightHand  1.73397 22.3647 9.12751
LeftUpLeg  -14.6192 -7.69822 7.75314
LeftLeg  34.4534 5.69713 3.37846
LeftFoot  -12.7484 -0.167686 -1.50098
LeftToes  -14.1141 1.33192e-006 1.13262e-007
352
root  -16.2419 32.8696 0.349597 2.95128 13.2676 -4.65074
RightUpLeg  -12.6316 -7.67332 5.88191
RightLeg  27.0352 -2.44644 -1.06154
RightFoot  -5.82021 -0.00539684 0.271417
RightToes  -32.6775 -0.162787 -0.270138
Spine  5.67937 -2.7978 -1.22516
Spine1  11.0909 -5.05701 -3.5811
HEad  -44.0857 -47.7541 63.5097
LeftShoulder1  0 -2.42657e-020 -4.95415e-022
LeftArm  -32.017 9.57068 -78.7889
LeftForeArm  56.0976 -25.4397 -4.76666
LeftHand  0.590677 -12.5155 -5.75588
RightShoulder  0 2.42657e-020 1.07489e-018
RightArm  -16.7217 10.3891 68.1997
RightForeArm  52.4783 28.5415 5.46853
RightHand  1.02886 22.9347 5.44011
LeftUpLeg  -13.557 -4.11172 7.02792
LeftLeg  33.6686 5.13579 2.95274
LeftFoot  -12.0248 -0.134157 -1.27372
LeftToes  -14.9657 1.33192e-006 1.13262e-007
353
root  -15.9779 32.9785 0.365321 3.30186 10.479 -4.33243
RightUpLeg  -12.3898 -5.86641 5.05936
RightLeg  25.9767 -1.43779 -0.594444
RightFoot  -4.61632 -0.0100804 0.127476
RightToes  -34.8054 -0.178373 -0.283939
Spine  5.55809 -2.8435 -0.684625
Spine1  10.816 -5.06271 -2.76577
HEad  -44.5778 -48.9931 66.1872
LeftShoulder1  0 -2.42657e-020 -4.95415e-022
LeftArm  -31.2024 10.5729 -78.083
LeftForeArm  53.9899 -28.3382 -5.41645
LeftHand  0.539889 -12.0347 -5.49147
RightShoulder  0 2.42657e-020 1.07489e-018
RightArm  -17.0719 13.6575 67.6691
RightForeArm  53.8853 27.9067 5.3207
RightHand  0.283716 22.9777 1.76632
LeftUpLeg  -13.0675 -1.18732 6.51373
LeftLeg  33.6263 4.16059 2.389
LeftFoot  -11.0735 -0.0928427 -0.957754
LeftToes  -16.6257 1.33192e-006 1.13262e-007
354
root  -15.6672 33.0871 0.365269 3.63217 7.77411 -4.03069
RightUpLeg  -12.1065 -4.24929 4.14463
RightLeg  24.6849 -0.285746 -0.113861
RightFoot  -3.43823 -0.0106082 0.0241051
RightToes  -36.6135 -0.192012 -0.295204
Spine  5.4888 -2.91313 -0.154949
Spine1  10.6702 -5.13831 -1.93823
HEad  -45.2333 -49.8654 68.33
LeftShoulder1  0 -2.42657e-020 -4.95415e-022
LeftArm  -31.4179 11.1344 -77.5346
LeftForeArm  52.4419 -29.8686 -5.7751
LeftHand  0.462633 -11.4592 -4.98137
RightShoulder  0 2.42657e-020 1.07489e-018
RightArm  -16.0199 16.1982 67.0346
RightForeArm  54.0302 28.1896 5.38479
RightHand  -0.302751 23.5102 -1.08508
LeftUpLeg  -13.013 0.188097 6.06023
LeftLeg  34.4047 3.42475 2.02889
LeftFoot  -10.5287 -0.0697887 -0.757424
LeftToes  -15.5573 1.33192e-006 1.13262e-007
355
root  -15.3105 33.1951 0.341524 3.93578 4.91153 -3.60582
RightUpLeg  -12.0863 -2.17924 3.04589
RightLeg  23.7458 0.541193 0.194108
RightFoot  -2.26177 -0.00898869 -0.0129253
RightToes  -38.2507 -0.204662 -0.305029
Spine  5.50386 -2.84277 0.238554
Spine1  10.7087 -4.98217 -1.26515
HEad  -45.2458 -50.0162 68.961
LeftShoulder1  0 -2.42657e-020 -4.95415e-022
LeftArm  -32.033 10.937 -76.9603
LeftForeArm  51.6112 -30.0212 -5.81279
LeftHand  0.397176 -11.0866 -4.46341
RightShoulder  0 2.42657e-020 1.07489e-018
RightArm  -15.4559 17.637 66.7981
RightForeArm  54.1936 29.4263 5.6702
RightHand  -0.812112 23.9216 -3.4631
LeftUpLeg  -13.0494 0.82102 5.71044
LeftLeg  35.2833 4.04325 2.47943
LeftFoot  -11.102 -0.0915515 -0.941994
LeftToes  -14.9075 1.33192e-006 1.13262e-007
356
root  -14.8822 33.2814 0.281435 4.27582 1.99194 -2.98129
RightUpLeg  -12.5947 -0.430952 1.63201
RightLeg  23.3973 1.57845 0.562227
RightFoot  -1.31023 -0.00617533 -0.0228788
RightToes  -39.6013 -0.215306 -0.312859
Spine  5.53697 -2.67781 0.452463
Spine1  10.7765 -4.66308 -0.865604
HEad  -44.4345 -49.3982 67.9783
LeftShoulder1  0 -2.42657e-020 -4.95415e-022
LeftArm  -32.7502 10.4403 -76.2492
LeftForeArm  51.5843 -29.6494 -5.72516
LeftHand  0.428723 -10.9437 -4.84622
RightShoulder  0 2.42657e-020 1.07489e-018
RightArm  -15.3879 17.8827 67.128
RightForeArm  54.0876 31.0355 6.05324
RightHand  -1.3139 23.7916 -5.8628
LeftUpLeg  -13.1193 0.797711 5.54308
LeftLeg  35.7921 5.34607 3.34167
LeftFoot  -11.1925 -0.122718 -1.25238
LeftToes  -13.2447 1.33192e-006 1.13262e-007
357
root  -14.4092 33.3318 0.193146 4.71355 -0.726776 -2.34976
RightUpLeg  -13.2933 1.40433 0.145572
RightLeg  22.9794 2.29039 0.798669
RightFoot  -0.556734 -0.0040968 -0.00367663
RightToes  -40.8554 -0.225352 -0.319903
Spine  5.56287 -2.51631 0.567385
Spine1  10.8215 -4.34399 -0.658488
HEad  -43.2356 -48.2708 66.4167
LeftShoulder1  0 -2.42657e-020 -4.95415e-022
LeftArm  -33.5984 9.82743 -75.5647
LeftForeArm  52.0819 -29.1565 -5.60901
LeftHand  0.449205 -10.7361 -5.15104
RightShoulder  0 2.42657e-020 1.07489e-018
RightArm  -15.5548 17.2382 67.9214
RightForeArm  53.8853 32.373 6.38219
RightHand  -1.7547 23.3877 -8.09507
LeftUpLeg  -13.428 0.554303 5.92578
LeftLeg  35.9396 5.60361 3.52199
LeftFoot  -11.0311 -0.125069 -1.29516
LeftToes  -12.4596 1.33192e-006 1.13262e-007
